# xmcd
#
# Track frame offsets: 
#        150
#        13594
#        26816
#        39110
#        51188
#        64406
#        80602
#        93511
#        109445
#        122068
#        134879
#        144286
#        156471
#        168065
#        180547
#        191929
#        209380
#        219876
#
# Disc length: 3098 seconds
#
# Revision: 0
# Processed by: cddbd v1.5.2PL0 Copyright (c) Steve Scherf et al.
# Submitted via: ExactAudioCopy v0.99pb4
#
DISCID=090c1812
DTITLE=Merle Haggard - Holding Things Together
DYEAR=2005
DGENRE=Country
TTITLE0=Cherokee Maiden
TTITLE1=Farmer's Daughter
TTITLE2=The Root's of my Raising
TTITLE3=I Take a Lot of Pride in What I Am
TTITLE4=Holding Things Together
TTITLE5=Ramblin' Fever
TTITLE6=Misery and Gin
TTITLE7=It's Not Life (But it's Not Bad)
TTITLE8=The Emptiest Arms in the World
TTITLE9=Swinging Doors
TTITLE10=The Legend of Bonnie and Clyde
TTITLE11=Everybody's Had The Blues
TTITLE12=From Graceland to the Promised Land
TTITLE13=I'm Always on a Mountain When I Fall
TTITLE14=My Friends are Gonna be Strangers
TTITLE15=I Think I'll Just Stay Here and Drink
TTITLE16=Someday We'll Look Back
TTITLE17=It's Been a Great Afternoon
EXTD=
EXTT0=
EXTT1=
EXTT2=
EXTT3=
EXTT4=
EXTT5=
EXTT6=
EXTT7=
EXTT8=
EXTT9=
EXTT10=
EXTT11=
EXTT12=
EXTT13=
EXTT14=
EXTT15=
EXTT16=
EXTT17=
PLAYORDER=
